<svg xmlns="http://www.w3.org/2000/svg" viewBox="0 0 685.33 918.52"><defs><style>.cls-1{fill:#231f20;}</style></defs><g id="Layer_1" data-name="Layer 1"><path class="cls-1" d="M681.57,999.26q164.16-430.56,328.3-861.11,37.14-28.71,73.56-57.41h155q-70.7,57.41-144.24,114.82L869.22,827h61Q809.13,913.14,681.57,999.26Z" transform="translate(-632.33 -80.74)"/></g><g id="Layer_2" data-name="Layer 2"><polygon class="cls-1" points="572.66 110.22 612.5 183.05 685.33 222.88 612.5 262.72 572.66 335.55 532.83 262.72 460 222.88 532.83 183.05 572.66 110.22"/><polygon class="cls-1" points="403.41 582.23 443.24 655.06 516.07 694.89 443.24 734.73 403.41 807.56 363.57 734.73 290.74 694.89 363.57 655.06 403.41 582.23"/><polygon class="cls-1" points="112.67 266.59 152.5 339.43 225.33 379.26 152.5 419.09 112.67 491.93 72.83 419.09 0 379.26 72.83 339.43 112.67 266.59"/><polygon class="cls-1" points="330.57 573.86 344.66 599.61 370.41 613.7 344.66 627.78 330.57 653.53 316.49 627.78 290.74 613.7 316.49 599.61 330.57 573.86"/><polygon class="cls-1" points="499.83 110.22 513.92 135.97 539.67 150.05 513.92 164.14 499.83 189.89 485.75 164.14 460 150.05 485.75 135.97 499.83 110.22"/><polygon class="cls-1" points="206.56 259.43 220.65 285.18 246.4 299.26 220.65 313.34 206.56 339.09 192.48 313.34 166.73 299.26 192.48 285.18 206.56 259.43"/><polygon class="cls-1" points="420.24 342.38 434.32 368.13 460.07 382.21 434.32 396.3 420.24 422.05 406.16 396.3 380.41 382.21 406.16 368.13 420.24 342.38"/><polygon class="cls-1" points="98.77 582.23 112.85 607.98 138.6 622.06 112.85 636.14 98.77 661.89 84.68 636.14 58.93 622.06 84.68 607.98 98.77 582.23"/><polygon class="cls-1" points="309.84 49.79 323.93 75.54 349.68 89.62 323.93 103.7 309.84 129.45 295.76 103.7 270.01 89.62 295.76 75.54 309.84 49.79"/></g></svg>