<svg xmlns="http://www.w3.org/2000/svg" viewBox="0 0 1763.48 450.01"><defs><style>.cls-1{fill:#231f20;}</style></defs><g id="Layer_1" data-name="Layer 1"><path class="cls-1" d="M78.26,764.67Q158.68,553.72,239.1,342.79q18.19-14.07,36-28.13h75.94q-34.63,28.13-70.67,56.25L170.19,680.3h29.89Q140.76,722.48,78.26,764.67ZM205,666.12Q248.45,539.55,292,413q36.21-28.12,71-56.25L300.22,553.62q-9.27,7.08-18.64,14.17H395.49q5.14,7,10.38,14L394.5,624H263.3Q234.52,645.09,205,666.12ZM438.38,624q-5.58-7.08-11.07-14.17Q452.54,511.43,477.76,413q8.48-7,16.86-13.95h39.45q-17.88,77.28-35.75,154.58-8.65,7.08-17.4,14.17H594.83q5.76,7,11.6,14-3.84,21.15-7.67,42.3Zm218.74,0Q644.73,610,632.69,595.92q16.6-98.44,33.22-196.88h52.74q-11.11,77.28-22.22,154.58,6.11,7.08,12.31,14.17h28.48q7.95-7.08,15.81-14.17,9.16-77.3,18.35-154.58h52.74q-9.23,98.43-18.46,196.88Q789.93,610,773.84,624Zm175.08,0q9.15-112.5,18.29-225h13.28q30.29,35.1,62.75,70.2,35.64-35.1,69.09-70.2h13.08q-.71,112.5-1.4,225H948.93q2-63.33,4-126.67-14.24,14.06-28.82,28.12-13.37-14.06-26.37-28.12Q894.14,560.7,890.56,624ZM1062,427.16q-4.67-9.33-9.25-18.67-8.87-4.73-17.65-9.45,8.73-4.73,17.37-9.45,4.27-9.34,8.47-18.68,4.55,9.34,9.17,18.68,8.82,4.73,17.73,9.45-8.61,4.72-17.29,9.45Q1066.27,417.82,1062,427.16ZM1036.47,624q-.49-77.4-1-154.8,6.82-7,13.56-13.95h27.07q6.88,7,13.86,13.95,2.41,77.4,4.84,154.8Zm87.54,0q-4.92-112.5-9.85-225h39.66q35.1,35.1,72.4,70.2-3.3-35.1-6.58-70.2h52.73q13.37,112.5,26.72,225h-58.36l-6.6-70.42q-30.95-28.12-60.47-56.25Q1178,560.7,1182.37,624Zm204.26,0q-12.91-98.43-25.84-196.88,11.52-14.06,22.68-28.12h105.47q15.92,14.06,32.17,28.12Q1483,525.61,1503.36,624H1445q-7.63-42.18-15.29-84.37h-56.25q6.58,42.18,13.18,84.37Zm91.23-140.63q-2.54-14.06-5.09-28.12h-54.14q2.19,14.06,4.39,28.12ZM1720,666.12q-38-28.12-74.53-56.25l-15.12-56.25q-35.86-28.12-70.31-56.25Q1575.46,560.7,1590.9,624h-58.36q-29.25-133.65-58.48-267.3,64,56.25,133.59,112.5-9.42-35.1-18.86-70.2h52.73Q1680.75,532.59,1720,666.12Zm121.76,98.55q-60.37-42.18-117.6-84.37H1754q-47.38-154.69-94.75-309.39h-78q-33.59-28.12-65.75-56.25H1743.3q35.34,28.13,72.08,56.25H1711.31Q1776.53,567.8,1841.74,764.67Z" transform="translate(-78.26 -314.66)"/></g><g id="Layer_2" data-name="Layer 2"><path class="cls-1" d="M425.65,729V654h56.24v9.3H435.1v18.75h28v9.45h-28V729Zm150,0V654h56.25v9.3h-46.8v18.75h28v9.45h-28v28.05h46.8V729Zm150,0v-9.45h37.5a9.48,9.48,0,0,0,9.45-9.3v-4.65a9.51,9.51,0,0,0-9.45-9.45H744.38a18.66,18.66,0,0,1-18.6-16.35h-.15v-9.45h.15A18.79,18.79,0,0,1,744.38,654h37.5v9.3h-37.5a9.48,9.48,0,0,0-9.3,9.45v4.65a9.38,9.38,0,0,0,9.3,9.45h18.75a18.66,18.66,0,0,1,18.6,16.35h.15v9.45h-.15A18.79,18.79,0,0,1,763.13,729Zm150-65.7V654h56.25v9.3ZM899,729V672.79h9.45V729Zm126.59,0V654h9.45v75Zm140.7,0-37.5-75h9.3l28.2,56.25,28-56.25h9.44Zm112.49,0,37.5-75,37.5,75h-9.45l-28-56.25L1288.11,729Zm159.3,0V654h9.44v65.55h46.8V729Z" transform="translate(-78.26 -314.66)"/></g></svg>