<svg xmlns="http://www.w3.org/2000/svg" viewBox="0 0 1763.48 450.01"><defs><style>.cls-1{fill:#231f20;}</style></defs><g id="Layer_1" data-name="Layer 1"><path class="cls-1" d="M78.26,765,239.1,343.12q18.19-14.07,36-28.13h75.94q-34.63,28.13-70.67,56.26L170.19,680.63h29.89Q140.76,722.81,78.26,765ZM205,666.45q43.5-126.56,87-253.13,36.21-28.12,71-56.25L300.22,554Q291,561,281.58,568.13H395.49q5.14,7,10.38,14l-11.37,42.3H263.3Q234.52,645.41,205,666.45Zm233.43-42.07q-5.58-7.1-11.07-14.18l50.45-196.88q8.48-7,16.86-13.95h39.45Q516.19,476.67,498.32,554q-8.65,7.09-17.4,14.18H594.83q5.76,7,11.6,14-3.84,21.15-7.67,42.3Zm218.74,0q-12.39-14.07-24.43-28.13,16.6-98.44,33.22-196.88h52.74Q707.54,476.67,696.43,554q6.11,7.09,12.31,14.18h28.48Q745.17,561,753,554q9.16-77.3,18.35-154.58h52.74q-9.23,98.45-18.46,196.88-15.74,14.07-31.82,28.13Zm175.08,0q9.15-112.5,18.29-225h13.28q30.29,35.1,62.75,70.2,35.64-35.1,69.09-70.2h13.08q-.71,112.5-1.4,225H948.93q2-63.35,4-126.68-14.24,14.06-28.82,28.12-13.37-14.06-26.37-28.12-3.56,63.34-7.13,126.68ZM1062,427.5q-4.67-9.35-9.25-18.68-8.87-4.72-17.65-9.45,8.73-4.72,17.37-9.45,4.27-9.33,8.47-18.67,4.55,9.33,9.17,18.67,8.82,4.72,17.73,9.45-8.61,4.72-17.29,9.45Q1066.27,418.17,1062,427.5Zm-25.49,196.88q-.49-77.4-1-154.81,6.82-7,13.56-13.95h27.07q6.88,7,13.86,13.95,2.41,77.4,4.84,154.81Zm87.54,0q-4.92-112.5-9.85-225h39.66q35.1,35.1,72.4,70.2-3.3-35.1-6.58-70.2h52.73q13.37,112.5,26.72,225h-58.36l-6.6-70.43q-30.95-28.12-60.47-56.25,4.35,63.34,8.71,126.68Zm204.26,0q-12.91-98.45-25.84-196.88,11.52-14.07,22.68-28.13h105.47q15.92,14.07,32.17,28.13,20.3,98.43,40.61,196.88H1445q-7.63-42.2-15.29-84.38h-56.25q6.58,42.19,13.18,84.38Zm91.23-140.63q-2.54-14.07-5.09-28.13h-54.14q2.19,14.07,4.39,28.13ZM1720,666.45q-38-28.12-74.53-56.25L1630.33,554q-35.86-28.12-70.31-56.25,15.43,63.34,30.88,126.68h-58.36q-29.25-133.67-58.48-267.31,64,56.25,133.59,112.5-9.42-35.1-18.86-70.2h52.73Q1680.75,532.92,1720,666.45ZM1841.74,765q-60.37-42.19-117.6-84.38H1754q-47.38-154.7-94.75-309.38h-78q-33.59-28.14-65.75-56.26H1743.3q35.34,28.13,72.08,56.26H1711.31Q1776.53,568.13,1841.74,765Z" transform="translate(-78.26 -314.99)"/></g><g id="Layer_2" data-name="Layer 2"><path class="cls-1" d="M594.39,729.37v-75h37.5a18.75,18.75,0,0,1,0,37.5l18.75,37.49h-9.3l-18.75-37.49H603.84v37.49Zm37.5-46.94a9.38,9.38,0,1,0,0-18.75h-28v18.75Zm75,46.94v-75h56.25v9.3h-46.8v18.75h28v9.45h-28v28h46.8v9.45Zm131.25,0a18.76,18.76,0,0,1-18.75-18.75V673.13a18.76,18.76,0,0,1,18.75-18.75h18.75a18.76,18.76,0,0,1,18.75,18.75h-9.3a9.51,9.51,0,0,0-9.45-9.45H838.13a9.48,9.48,0,0,0-9.3,9.45v37.49a9.35,9.35,0,0,0,9.3,9.3h18.75a9.48,9.48,0,0,0,9.45-9.3h9.3a18.76,18.76,0,0,1-18.75,18.75Zm112.5,0a18.76,18.76,0,0,1-18.75-18.75V673.13a18.76,18.76,0,0,1,18.75-18.75h18.75a18.75,18.75,0,0,1,18.74,18.75v37.49a18.75,18.75,0,0,1-18.74,18.75Zm18.75-9.45a9.47,9.47,0,0,0,9.44-9.3V673.13a9.5,9.5,0,0,0-9.44-9.45H950.63a9.48,9.48,0,0,0-9.3,9.45v37.49a9.35,9.35,0,0,0,9.3,9.3Zm75,9.45v-75h37.5a18.75,18.75,0,0,1,0,37.5l18.75,37.49h-9.3l-18.75-37.49h-18.75v37.49Zm37.5-46.94a9.38,9.38,0,1,0,0-18.75h-28v18.75Zm75,46.94v-75h37.5a18.76,18.76,0,0,1,18.75,18.75v37.49a18.76,18.76,0,0,1-18.75,18.75Zm37.5-9.45a9.48,9.48,0,0,0,9.45-9.3V673.13a9.51,9.51,0,0,0-9.45-9.45h-28v56.24Zm75,9.45v-9.45h37.5a9.48,9.48,0,0,0,9.45-9.3V706a9.5,9.5,0,0,0-9.45-9.44h-18.75a18.66,18.66,0,0,1-18.6-16.35h-.15v-9.45h.15a18.79,18.79,0,0,1,18.6-16.35h37.5v9.3h-37.5a9.48,9.48,0,0,0-9.3,9.45v4.65a9.38,9.38,0,0,0,9.3,9.45h18.75a18.66,18.66,0,0,1,18.6,16.35h.15V713h-.15a18.79,18.79,0,0,1-18.6,16.35Z" transform="translate(-78.26 -314.99)"/></g></svg>